<svg width="568.066" height="89.009" viewBox="0 0 568.066 89.009" xmlns="http://www.w3.org/2000/svg"><g id="svgGroup" stroke-linecap="round" fill-rule="evenodd" font-size="9pt" stroke="#000000" stroke-width="1.25mm" fill="#ff0000" style="stroke:#000000;stroke-width:1.25mm;fill:#ff0000"><path d="M 497.266 21.973 L 496.68 34.375 A 19.218 19.218 0 0 1 498.844 31.525 A 14.425 14.425 0 0 1 501.66 29.15 Q 504.398 27.404 506.862 26.524 A 18.689 18.689 0 0 1 507.031 26.465 A 22.46 22.46 0 0 1 512.708 25.223 A 21.025 21.025 0 0 1 513.086 25.195 A 21.553 21.553 0 0 1 516.801 25.623 A 18.127 18.127 0 0 1 518.848 26.172 Q 521.094 26.953 523.389 28.613 A 9.432 9.432 0 0 1 525.792 31.196 A 13.185 13.185 0 0 1 526.953 33.496 Q 530.04 30.318 533.085 28.449 A 22.835 22.835 0 0 1 533.545 28.174 Q 536.05 26.716 538.125 25.802 A 27.932 27.932 0 0 1 539.355 25.293 A 25.371 25.371 0 0 1 542.285 24.439 A 18.894 18.894 0 0 1 545.02 24.023 A 17.988 17.988 0 0 1 545.519 24.016 Q 547.941 24.016 550.102 24.68 A 14.284 14.284 0 0 1 551.514 25.195 A 21.298 21.298 0 0 1 555.263 27.241 A 18.619 18.619 0 0 1 556.738 28.369 A 20.948 20.948 0 0 1 558.877 30.448 A 16.412 16.412 0 0 1 560.352 32.373 A 14.793 14.793 0 0 1 561.092 33.633 Q 561.425 34.276 561.628 34.86 A 5.759 5.759 0 0 1 561.914 36.035 A 10.613 10.613 0 0 1 561.998 36.982 Q 562.085 38.884 561.621 41.553 A 140.984 140.984 0 0 1 560.254 48.389 A 1573.075 1573.075 0 0 0 559.509 51.709 A 1190.323 1190.323 0 0 0 558.838 54.736 Q 558.23 57.497 558.294 58.688 A 3.458 3.458 0 0 0 558.301 58.789 A 4.361 4.361 0 0 0 558.577 59.472 Q 558.919 60.159 559.562 60.997 A 15.66 15.66 0 0 0 559.668 61.133 Q 560.6 62.251 562.377 63.859 A 57.87 57.87 0 0 0 562.549 64.014 A 23.488 23.488 0 0 0 563.906 65.134 Q 565.471 66.339 567.74 67.765 A 78.919 78.919 0 0 0 568.066 67.969 Q 565.381 67.885 563.236 67.801 A 409.166 409.166 0 0 1 562.549 67.773 A 75.406 75.406 0 0 1 560.857 67.686 Q 559.534 67.603 558.496 67.48 A 137.049 137.049 0 0 0 557.1 67.348 Q 556.547 67.298 556.041 67.258 A 77.334 77.334 0 0 0 555.078 67.187 Q 553.906 67.188 552.246 66.992 Q 550.879 66.895 548.682 66.699 A 207.651 207.651 0 0 0 546.638 66.528 Q 545.593 66.446 544.436 66.364 A 351.921 351.921 0 0 0 543.652 66.309 A 3.364 3.364 0 0 0 545.41 65.186 A 16.99 16.99 0 0 0 546.117 64.267 A 13.465 13.465 0 0 0 546.582 63.574 A 10.065 10.065 0 0 0 547.202 62.008 A 11.79 11.79 0 0 0 547.363 61.426 A 12.892 12.892 0 0 0 547.461 60.864 Q 547.6 59.96 547.739 58.46 A 85.091 85.091 0 0 0 547.754 58.301 A 109.857 109.857 0 0 0 547.926 56.158 Q 548.006 55.032 548.076 53.779 A 183.333 183.333 0 0 0 548.096 53.418 A 148.054 148.054 0 0 0 548.256 49.336 A 171.936 171.936 0 0 0 548.291 47.656 Q 548.34 44.629 548.242 41.895 Q 548.145 39.16 547.852 36.914 A 24.956 24.956 0 0 0 547.66 35.675 Q 547.449 34.513 547.166 33.742 A 6.046 6.046 0 0 0 547.07 33.496 A 2.829 2.829 0 0 0 546.187 32.394 A 3.787 3.787 0 0 0 545.703 32.08 Q 544.727 31.543 543.457 31.396 A 8.3 8.3 0 0 0 542.505 31.342 A 8.385 8.385 0 0 0 540.918 31.494 A 7.427 7.427 0 0 0 539.531 31.898 A 6.155 6.155 0 0 0 538.672 32.324 Q 537.999 32.848 536.983 33.657 A 398.48 398.48 0 0 0 536.328 34.18 Q 535.356 35.002 533.926 36.283 A 240.008 240.008 0 0 0 533.008 37.109 Q 531.059 38.872 528.141 41.517 A 14904.397 14904.397 0 0 0 527.832 41.797 A 2008.048 2008.048 0 0 0 527.695 44.724 Q 527.529 48.303 527.425 50.889 A 587.056 587.056 0 0 0 527.393 51.709 Q 527.246 55.469 527.148 57.422 A 238.982 238.982 0 0 0 527.108 58.44 Q 527.064 59.613 527.054 60.282 A 23.934 23.934 0 0 0 527.051 60.645 A 4.11 4.11 0 0 0 527.018 61.155 A 3.459 3.459 0 0 0 527.148 62.109 Q 527.344 63.574 528.32 64.844 A 14.257 14.257 0 0 0 526.48 64.514 A 16.383 16.383 0 0 0 525.83 64.453 A 168.151 168.151 0 0 1 524.573 64.355 A 124.012 124.012 0 0 1 523.438 64.258 Q 522.168 64.16 520.898 64.16 Q 519.824 64.16 518.555 64.258 A 671.917 671.917 0 0 0 517.68 64.338 Q 517.287 64.374 516.847 64.415 A 1393.984 1393.984 0 0 0 515.918 64.502 A 265.832 265.832 0 0 0 514.282 64.661 A 344.449 344.449 0 0 0 512.5 64.844 A 4.627 4.627 0 0 0 513.399 64.119 A 4.075 4.075 0 0 0 513.77 63.672 Q 514.206 63.06 514.487 62.527 A 6.833 6.833 0 0 0 514.551 62.402 Q 514.941 61.719 515.137 61.133 A 16.23 16.23 0 0 0 515.18 60.853 Q 515.289 60.117 515.527 58.252 Q 515.82 55.957 515.918 52.832 A 102.832 102.832 0 0 0 515.967 49.622 A 120.139 120.139 0 0 0 515.918 46.24 A 41.538 41.538 0 0 0 515.659 42.575 A 32.394 32.394 0 0 0 515.234 39.893 A 17.441 17.441 0 0 0 514.655 37.726 Q 514.154 36.26 513.428 35.156 A 4.453 4.453 0 0 0 512.659 34.253 Q 511.777 33.477 510.619 33.477 A 3.671 3.671 0 0 0 510.254 33.496 A 15.803 15.803 0 0 0 506.834 34.18 A 18.911 18.911 0 0 0 505.469 34.668 Q 503.588 35.384 501.461 36.758 A 31.587 31.587 0 0 0 501.074 37.012 A 17.08 17.08 0 0 0 498.399 39.242 A 22.232 22.232 0 0 0 496.68 41.211 Q 496.381 46.819 496.282 50.652 A 152.27 152.27 0 0 0 496.24 52.832 A 265.313 265.313 0 0 0 496.228 54.207 Q 496.208 57.372 496.283 59.224 A 44.89 44.89 0 0 0 496.289 59.375 Q 496.374 61.657 496.458 62.695 A 16.051 16.051 0 0 0 496.484 62.988 A 3.617 3.617 0 0 0 496.757 63.928 A 4.485 4.485 0 0 0 496.973 64.355 A 23.973 23.973 0 0 0 497.213 64.822 Q 497.322 65.028 497.445 65.253 A 44.217 44.217 0 0 0 497.705 65.723 A 9.105 9.105 0 0 0 498.73 67.188 L 483.203 66.406 Q 483.984 66.016 484.57 65.381 A 7.547 7.547 0 0 0 485.312 64.443 A 6.599 6.599 0 0 0 485.547 64.062 L 486.328 62.5 Q 486.621 61.816 486.865 59.277 Q 487.033 57.532 487.178 55.348 A 210.249 210.249 0 0 0 487.305 53.271 A 370.234 370.234 0 0 0 487.488 49.707 A 433.941 433.941 0 0 0 487.646 45.947 A 342.024 342.024 0 0 0 487.769 42.212 A 278.976 278.976 0 0 0 487.842 38.721 A 553.341 553.341 0 0 0 487.872 36.331 Q 487.881 35.393 487.886 34.55 A 282.004 282.004 0 0 0 487.891 32.959 A 92.754 92.754 0 0 0 487.887 32.129 Q 487.873 30.532 487.798 30.107 A 1.23 1.23 0 0 0 487.793 30.078 Q 487.53 29.201 486.873 28.245 A 10.026 10.026 0 0 0 486.719 28.027 Q 486.202 27.437 485.406 26.763 A 21.088 21.088 0 0 0 484.863 26.318 A 6.411 6.411 0 0 0 483.641 25.568 Q 482.806 25.169 481.738 24.902 Q 483.282 24.768 484.527 24.634 A 82.253 82.253 0 0 0 485.596 24.512 A 71.859 71.859 0 0 0 486.368 24.414 Q 487.44 24.272 488.229 24.131 A 25.234 25.234 0 0 0 488.281 24.121 A 46.645 46.645 0 0 0 489.178 23.975 Q 489.529 23.914 489.842 23.853 A 23.173 23.173 0 0 0 490.43 23.73 A 10.795 10.795 0 0 0 491.327 23.59 Q 491.829 23.491 492.383 23.34 Q 493.295 23.158 494.419 22.847 A 41.807 41.807 0 0 0 494.58 22.803 A 50.028 50.028 0 0 0 495.862 22.424 A 67.219 67.219 0 0 0 497.266 21.973 Z M 339.258 70.41 L 342.383 70.41 L 351.27 70.41 A 15.985 15.985 0 0 0 350.144 70.791 Q 349.101 71.191 348.449 71.649 A 4.44 4.44 0 0 0 348.34 71.729 A 6.278 6.278 0 0 0 347.714 72.261 Q 347.408 72.561 347.195 72.868 A 3.083 3.083 0 0 0 346.973 73.242 A 4.514 4.514 0 0 0 346.628 74.396 A 3.995 3.995 0 0 0 346.582 75 Q 346.956 77.246 348.945 78.326 A 5.852 5.852 0 0 0 349.121 78.418 A 9.897 9.897 0 0 0 350.931 79.094 Q 352.647 79.565 354.98 79.688 A 55.308 55.308 0 0 0 355.924 79.731 Q 358.78 79.836 359.961 79.541 A 4.981 4.981 0 0 0 361.01 79.157 A 3.681 3.681 0 0 0 362.109 78.32 Q 363.39 76.4 364.342 73.562 A 32.345 32.345 0 0 0 364.746 72.266 A 30.539 30.539 0 0 0 365.231 69.892 Q 365.438 68.652 365.598 67.207 A 74.142 74.142 0 0 0 365.869 64.111 Q 366.211 59.082 364.941 51.758 A 23.469 23.469 0 0 1 361.374 55.692 A 19.028 19.028 0 0 1 357.715 58.203 A 43.326 43.326 0 0 1 353.711 60.059 A 32.632 32.632 0 0 1 349.902 61.328 A 37.294 37.294 0 0 1 341.016 62.402 A 47.445 47.445 0 0 1 334.525 61.717 Q 331.213 61.116 328.548 60.028 A 19.149 19.149 0 0 1 323.34 56.934 A 14.916 14.916 0 0 1 317.964 45.982 Q 317.931 45.413 317.931 44.827 A 21.913 21.913 0 0 1 317.969 43.555 Q 318.262 39.355 320.557 35.156 Q 322.852 30.957 326.611 27.637 A 29.467 29.467 0 0 1 335.254 22.363 A 23.452 23.452 0 0 1 344.041 20.665 A 24.677 24.677 0 0 1 345.41 20.703 A 39.815 39.815 0 0 1 351.113 21.667 A 34.927 34.927 0 0 1 352.93 22.168 Q 355.957 23.145 358.936 24.902 A 11.542 11.542 0 0 1 363.477 29.785 A 2850.032 2850.032 0 0 1 363.336 28.848 Q 363.135 27.502 362.988 26.514 A 37.178 37.178 0 0 0 362.866 25.742 Q 362.741 25.004 362.615 24.487 A 10.403 10.403 0 0 0 362.598 24.414 L 362.305 22.949 A 12.091 12.091 0 0 0 362.089 22.445 Q 361.973 22.19 361.835 21.912 A 19.461 19.461 0 0 0 361.816 21.875 A 4.642 4.642 0 0 0 361.653 21.516 Q 361.562 21.334 361.444 21.131 A 11.003 11.003 0 0 0 361.182 20.703 Q 360.804 20.116 360.318 19.384 A 156.881 156.881 0 0 0 360.156 19.141 Q 361.426 19.531 362.744 19.629 A 296.906 296.906 0 0 1 364.026 19.727 A 249.124 249.124 0 0 1 365.234 19.824 A 16.868 16.868 0 0 0 366.528 19.873 A 18.847 18.847 0 0 0 367.871 19.824 Q 369.046 19.824 370.509 19.752 A 77.923 77.923 0 0 0 370.996 19.727 A 68.967 68.967 0 0 1 372.257 19.66 Q 372.82 19.635 373.445 19.615 A 133.648 133.648 0 0 1 374.756 19.58 Q 376.953 19.531 379.785 19.336 A 7.65 7.65 0 0 0 378.265 19.858 A 5.991 5.991 0 0 0 377.002 20.654 A 11.427 11.427 0 0 0 375.564 22.064 A 10.014 10.014 0 0 0 375.098 22.656 A 12.271 12.271 0 0 0 373.633 25.195 Q 373.145 26.465 373.047 30.029 A 125.869 125.869 0 0 0 373.01 31.891 Q 372.986 33.832 373.01 36.09 A 249.223 249.223 0 0 0 373.047 38.428 A 1535.871 1535.871 0 0 0 373.157 43.445 A 1897.928 1897.928 0 0 0 373.291 48.828 Q 373.438 54.395 373.486 59.473 A 345.697 345.697 0 0 1 373.502 62.356 Q 373.505 64.159 373.486 65.831 A 228.455 228.455 0 0 1 373.438 68.701 A 81.443 81.443 0 0 1 373.37 70.639 Q 373.278 72.583 373.1 73.886 A 15.128 15.128 0 0 1 372.949 74.805 Q 371.582 80.957 367.871 84.814 A 13.324 13.324 0 0 1 360.337 88.722 A 18.13 18.13 0 0 1 358.105 88.965 A 54.616 54.616 0 0 1 356.496 89.006 Q 352.022 89.053 348.812 88.297 A 16.92 16.92 0 0 1 346.533 87.598 Q 342.285 85.938 339.941 83.545 A 21.879 21.879 0 0 1 338.002 81.291 Q 337.05 80.01 336.428 78.716 A 14.601 14.601 0 0 1 336.426 78.711 Q 335.254 76.27 333.984 75 Q 332.813 73.926 331.641 72.949 Q 330.566 72.168 329.443 71.387 A 6.933 6.933 0 0 0 328.472 70.816 Q 327.851 70.52 327.246 70.41 A 178.508 178.508 0 0 0 329.772 70.48 Q 331.131 70.508 332.324 70.508 L 336.133 70.508 Q 337.643 70.508 338.866 70.436 A 31.803 31.803 0 0 0 339.258 70.41 Z M 0 3.809 A 220.845 220.845 0 0 0 4.195 4.12 Q 7.526 4.333 10.303 4.395 A 484.06 484.06 0 0 0 13.45 4.454 Q 14.684 4.473 15.789 4.483 A 241.991 241.991 0 0 0 17.871 4.492 Q 20.638 4.492 22.831 4.378 A 59.338 59.338 0 0 0 24.121 4.297 Q 26.567 4.035 30.341 3.616 A 3418.609 3418.609 0 0 0 31.25 3.516 A 589.344 589.344 0 0 0 33.24 3.25 Q 35.978 2.88 39.608 2.369 A 1782.114 1782.114 0 0 0 40.82 2.197 A 504.453 504.453 0 0 0 45.572 1.499 Q 47.701 1.177 50.077 0.802 A 1023.355 1023.355 0 0 0 55.078 0 A 20.653 20.653 0 0 0 53.271 3.467 Q 52.539 5.273 52.051 6.738 A 89.749 89.749 0 0 0 51.271 9.74 A 81.059 81.059 0 0 0 51.172 10.156 A 206.082 206.082 0 0 0 51.019 11.139 Q 50.782 12.689 50.491 14.73 A 466.111 466.111 0 0 0 50.488 14.746 Q 50.098 17.09 49.561 20.654 A 706.493 706.493 0 0 1 49.123 23.513 Q 48.73 26.05 48.242 29.102 Q 45.345 21.569 42.4 17.474 A 24.626 24.626 0 0 0 42.334 17.383 A 46.861 46.861 0 0 0 40.515 15.029 Q 38.562 12.671 36.816 11.328 Q 33.887 9.082 31.25 8.789 A 16.256 16.256 0 0 0 28.612 8.991 Q 26.535 9.333 25 10.254 Q 22.559 11.719 21.045 14.014 A 18.248 18.248 0 0 0 18.75 18.994 A 33.606 33.606 0 0 0 17.91 22.575 A 28.563 28.563 0 0 0 17.676 24.17 Q 17.383 26.66 17.285 28.564 Q 17.188 30.469 17.09 31.152 A 123.137 123.137 0 0 0 19.502 30.992 Q 20.444 30.92 21.282 30.838 A 59.303 59.303 0 0 0 22.852 30.664 Q 24.852 30.414 26.141 30.164 A 22.114 22.114 0 0 0 26.562 30.078 A 30.747 30.747 0 0 0 27.533 29.834 Q 28.496 29.574 29.156 29.314 A 8.89 8.89 0 0 0 29.199 29.297 A 23.502 23.502 0 0 0 31.396 27.96 A 26.959 26.959 0 0 0 32.129 27.441 A 27.401 27.401 0 0 0 33.435 26.367 A 37.326 37.326 0 0 0 34.814 25.098 A 13.054 13.054 0 0 0 36.6 22.941 A 15.903 15.903 0 0 0 37.305 21.777 A 464.441 464.441 0 0 1 37.021 23.462 Q 36.622 25.801 36.301 27.523 A 161.057 161.057 0 0 1 36.279 27.637 A 269.211 269.211 0 0 1 36.069 28.748 Q 35.767 30.322 35.547 31.348 Q 35.226 32.71 35.103 33.546 A 9.663 9.663 0 0 0 35.059 33.887 Q 34.909 34.56 34.702 35.633 A 143.986 143.986 0 0 0 34.57 36.328 A 70.183 70.183 0 0 0 34.418 37.061 Q 34.213 38.068 33.968 39.399 A 206.185 206.185 0 0 0 33.887 39.844 Q 33.506 41.94 33.031 45.06 A 323.963 323.963 0 0 0 33.008 45.215 A 21.106 21.106 0 0 0 31.964 43.561 Q 31.281 42.587 30.566 41.846 A 24.507 24.507 0 0 0 29.642 40.932 Q 28.894 40.234 28.223 39.746 A 15.489 15.489 0 0 0 26.978 38.965 A 11.531 11.531 0 0 0 25.781 38.379 A 69.877 69.877 0 0 0 24.118 37.891 A 85.087 85.087 0 0 0 23.047 37.598 Q 22.174 37.396 21.094 37.172 A 140.486 140.486 0 0 0 20.068 36.963 Q 18.359 36.621 16.406 36.328 Q 16.556 40.366 16.82 43.516 A 93.244 93.244 0 0 0 16.992 45.361 Q 17.383 49.121 17.676 51.66 A 119.366 119.366 0 0 0 17.871 53.064 Q 18.164 55.078 18.457 56.543 A 19.125 19.125 0 0 0 19.092 58.569 Q 19.47 59.586 19.986 60.672 A 30.644 30.644 0 0 0 20.02 60.742 A 25.501 25.501 0 0 0 20.855 62.418 Q 21.291 63.224 21.829 64.103 A 49.412 49.412 0 0 0 22.51 65.186 Q 23.907 67.345 26.002 69.762 A 59.729 59.729 0 0 0 26.66 70.508 A 26.603 26.603 0 0 0 23.093 69.878 A 29.646 29.646 0 0 0 22.559 69.824 Q 20.712 69.656 19.227 69.561 A 85.505 85.505 0 0 0 18.75 69.531 A 42.103 42.103 0 0 0 16.748 69.482 A 36.242 36.242 0 0 0 14.844 69.531 A 50.604 50.604 0 0 0 12.793 69.678 A 67.153 67.153 0 0 0 10.547 69.922 Q 8.868 70.09 6.757 70.402 A 120.725 120.725 0 0 0 6.055 70.508 Q 3.516 70.898 0.684 71.387 A 23.126 23.126 0 0 0 2.282 69.623 A 17.855 17.855 0 0 0 3.418 68.066 A 23.181 23.181 0 0 0 4.135 66.888 Q 4.454 66.322 4.693 65.811 A 10.671 10.671 0 0 0 4.98 65.137 Q 5.566 63.672 5.762 62.305 Q 5.841 61.347 5.856 58.533 A 262.051 262.051 0 0 0 5.859 57.178 A 386.436 386.436 0 0 0 5.846 54.019 Q 5.823 51.227 5.762 47.9 A 719.768 719.768 0 0 0 5.64 42.419 A 852.68 852.68 0 0 0 5.469 36.621 A 2695.189 2695.189 0 0 0 5.273 30.847 A 2214.65 2214.65 0 0 0 5.078 25.439 A 438.764 438.764 0 0 0 4.925 21.734 Q 4.858 20.279 4.786 18.971 A 224.377 224.377 0 0 0 4.639 16.504 Q 4.395 12.793 4.102 12.012 A 146.883 146.883 0 0 1 3.741 11.101 Q 3.558 10.635 3.358 10.117 A 251.434 251.434 0 0 1 3.223 9.766 Q 2.441 7.715 0 3.809 Z M 176.66 15.43 A 118.861 118.861 0 0 0 175.848 17.465 Q 175.466 18.45 175.146 19.336 A 1177.299 1177.299 0 0 0 174.619 20.799 Q 174.298 21.692 174.023 22.461 Q 173.688 23.535 173.398 24.425 A 114.589 114.589 0 0 1 173.145 25.195 A 360.664 360.664 0 0 0 172.784 26.466 Q 172.601 27.115 172.401 27.834 A 607.486 607.486 0 0 0 172.266 28.32 Q 171.777 29.883 171.045 32.178 A 712.264 712.264 0 0 0 170.461 34.016 Q 170.204 34.83 169.922 35.726 A 1296.601 1296.601 0 0 0 169.336 37.598 A 23.774 23.774 0 0 0 168.591 34.412 Q 167.802 31.888 166.504 30.127 Q 164.453 27.344 162.305 25.781 A 17.438 17.438 0 0 0 156.836 23.242 Q 152.317 22.489 149.95 23.17 A 5.208 5.208 0 0 0 149.219 23.438 Q 146.875 24.512 146.094 26.172 A 12.159 12.159 0 0 0 145.794 26.733 Q 145.538 27.24 145.264 27.881 A 12.164 12.164 0 0 0 144.58 29.98 A 6.905 6.905 0 0 0 144.406 31.515 A 6.777 6.777 0 0 0 144.434 32.129 A 2.555 2.555 0 0 0 145.312 33.887 Q 145.801 34.375 147.852 35.205 Q 149.261 35.776 151.064 36.439 A 173.499 173.499 0 0 0 152.783 37.061 A 2946.086 2946.086 0 0 1 155.762 38.123 A 3568.702 3568.702 0 0 1 158.936 39.258 Q 162.207 40.43 165.137 41.602 A 58.794 58.794 0 0 1 167.551 42.627 Q 168.733 43.163 169.753 43.698 A 33.461 33.461 0 0 1 170.215 43.945 Q 172.363 45.117 173.047 46.094 A 16.868 16.868 0 0 1 173.467 46.84 Q 173.885 47.624 174.365 48.682 A 14.36 14.36 0 0 1 175.284 51.436 A 16.59 16.59 0 0 1 175.439 52.197 A 15.331 15.331 0 0 1 175.679 54.911 A 16.335 16.335 0 0 1 175.635 56.104 A 10.284 10.284 0 0 1 174.797 59.447 A 12.061 12.061 0 0 1 174.512 60.059 A 9.519 9.519 0 0 1 173.058 62.163 A 13.104 13.104 0 0 1 171.436 63.672 A 13.003 13.003 0 0 1 169.338 65.007 Q 168.284 65.552 167.017 66.009 A 25.469 25.469 0 0 1 165.82 66.406 Q 163.014 67.275 160.345 67.275 A 15.988 15.988 0 0 1 157.91 67.09 A 38.713 38.713 0 0 1 153.451 66.143 A 31.871 31.871 0 0 1 150.928 65.332 Q 148.2 64.325 146.086 63.354 A 45.67 45.67 0 0 1 145.41 63.037 A 18.003 18.003 0 0 0 144.488 62.624 Q 142.862 61.955 142.09 62.109 A 4.79 4.79 0 0 0 141.243 62.352 Q 140.827 62.511 140.374 62.754 A 10.829 10.829 0 0 0 139.648 63.184 A 40.429 40.429 0 0 0 137.214 64.874 A 37.075 37.075 0 0 0 137.061 64.99 Q 135.84 65.918 134.961 66.65 Q 134.169 67.31 134.091 67.217 A 0.044 0.044 0 0 1 134.082 67.188 A 0.582 0.582 0 0 1 134.094 67.087 Q 134.142 66.829 134.384 66.129 A 30.799 30.799 0 0 1 134.424 66.016 Q 134.659 65.344 134.94 64.465 A 102.735 102.735 0 0 0 135.205 63.623 A 58.129 58.129 0 0 0 135.645 62.134 A 75.451 75.451 0 0 0 136.084 60.498 Q 136.523 58.789 136.719 57.227 A 569.507 569.507 0 0 1 136.879 56.192 Q 136.951 55.727 137.033 55.204 A 1193.082 1193.082 0 0 1 137.207 54.102 A 118.498 118.498 0 0 1 137.374 52.753 Q 137.452 52.149 137.545 51.473 A 242.961 242.961 0 0 1 137.744 50.049 L 138.574 44.238 Q 139.046 46.693 139.929 48.509 A 12.442 12.442 0 0 0 139.99 48.633 A 42.463 42.463 0 0 0 140.793 50.163 Q 141.207 50.913 141.611 51.562 A 24.719 24.719 0 0 0 141.797 51.855 A 31.161 31.161 0 0 0 142.718 53.129 Q 143.153 53.698 143.571 54.18 A 17.498 17.498 0 0 0 143.848 54.492 Q 145.313 55.859 147.314 57.031 A 31.177 31.177 0 0 0 151.367 59.033 A 16.399 16.399 0 0 0 153.483 59.734 A 12.676 12.676 0 0 0 155.273 60.059 A 8.842 8.842 0 0 0 155.921 60.104 Q 156.658 60.127 157.292 60.011 A 4.598 4.598 0 0 0 158.398 59.668 Q 159.556 59.134 160.43 57.787 A 7.943 7.943 0 0 0 160.596 57.52 Q 161.523 55.957 161.914 54.102 A 14.408 14.408 0 0 0 162.207 51.928 Q 162.227 51.574 162.227 51.227 A 12.083 12.083 0 0 0 162.207 50.537 A 6.74 6.74 0 0 0 162.038 49.345 Q 161.868 48.641 161.542 48.082 A 3.898 3.898 0 0 0 161.328 47.754 Q 160.742 47.07 158.643 45.996 A 73.264 73.264 0 0 0 156.958 45.163 Q 156.21 44.804 155.386 44.427 A 128.853 128.853 0 0 0 153.662 43.652 A 767.043 767.043 0 0 0 149.176 41.693 A 881.015 881.015 0 0 0 147.607 41.016 A 107.602 107.602 0 0 1 143.247 39.025 A 92.347 92.347 0 0 1 141.65 38.232 Q 139.52 37.148 137.961 36.121 A 22.952 22.952 0 0 1 137.061 35.498 A 10.428 10.428 0 0 1 136.28 34.874 Q 135.207 33.92 135.059 33.105 A 41.445 41.445 0 0 1 134.888 31.458 A 55.21 55.21 0 0 1 134.766 29.639 Q 134.668 27.734 135.01 25.83 A 11.131 11.131 0 0 1 136.377 22.168 A 7.54 7.54 0 0 1 138.272 20.028 A 9.794 9.794 0 0 1 139.453 19.238 A 7.984 7.984 0 0 1 140.682 18.678 Q 141.32 18.445 142.079 18.267 A 17.174 17.174 0 0 1 143.066 18.066 A 28.775 28.775 0 0 1 145.669 17.741 A 37.815 37.815 0 0 1 148.047 17.627 A 51.354 51.354 0 0 1 148.964 17.619 Q 150.981 17.619 153.103 17.775 A 61.966 61.966 0 0 1 153.711 17.822 A 134.181 134.181 0 0 1 157.968 18.243 A 118.482 118.482 0 0 1 159.326 18.408 A 62.085 62.085 0 0 1 161.89 18.787 A 47.074 47.074 0 0 1 164.209 19.238 A 66.846 66.846 0 0 1 165.244 19.476 Q 166.358 19.743 167.134 19.977 A 16.193 16.193 0 0 1 167.578 20.117 A 4.661 4.661 0 0 0 169.158 20.388 Q 169.67 20.388 170.206 20.282 A 6.217 6.217 0 0 0 170.508 20.215 Q 171.875 19.922 173.438 18.945 A 6.938 6.938 0 0 0 174.523 18.089 Q 175.504 17.159 176.522 15.639 A 23.143 23.143 0 0 0 176.66 15.43 Z M 435.84 31.641 Q 436.328 31.055 436.475 29.443 A 14.234 14.234 0 0 1 436.696 27.949 Q 436.848 27.188 437.087 26.349 A 25.904 25.904 0 0 1 437.256 25.781 Q 437.891 23.73 439.453 21.484 Q 440.636 19.784 442.939 18.251 A 23.271 23.271 0 0 1 444.531 17.285 A 20.899 20.899 0 0 1 447.693 15.797 A 15.51 15.51 0 0 1 451.172 14.941 A 19.146 19.146 0 0 1 453.477 14.799 A 16.876 16.876 0 0 1 457.324 15.234 Q 460.254 15.918 462.842 17.383 A 34.064 34.064 0 0 1 466.965 20.117 A 30.885 30.885 0 0 1 467.578 20.605 A 6.804 6.804 0 0 1 468.969 22.14 Q 469.442 22.844 469.817 23.721 A 11.786 11.786 0 0 1 469.922 23.975 A 22.693 22.693 0 0 1 470.787 26.616 A 28.909 28.909 0 0 1 471.289 28.906 A 59.69 59.69 0 0 1 471.939 33.694 A 66.668 66.668 0 0 1 472.021 34.619 A 126.992 126.992 0 0 1 472.305 38.977 A 114.184 114.184 0 0 1 472.363 40.381 Q 472.461 43.164 472.51 45.459 Q 472.543 47.001 472.686 48.168 A 14.158 14.158 0 0 0 472.852 49.219 A 11.754 11.754 0 0 0 473.347 51.093 A 8.73 8.73 0 0 0 474.219 52.881 A 13.185 13.185 0 0 0 475.379 54.429 A 10.595 10.595 0 0 0 476.367 55.42 A 12.669 12.669 0 0 0 477.612 56.385 A 9.763 9.763 0 0 0 478.711 57.031 A 22.023 22.023 0 0 0 479.549 57.43 Q 479.963 57.615 480.334 57.757 A 10.633 10.633 0 0 0 480.762 57.91 A 5.522 5.522 0 0 0 481.239 58.123 Q 481.475 58.214 481.693 58.268 A 3.051 3.051 0 0 0 481.836 58.301 Q 482.519 58.574 482.915 58.465 A 0.638 0.638 0 0 0 483.203 58.301 A 59.122 59.122 0 0 1 482.777 59.271 Q 482.434 60.034 482.129 60.645 A 48.277 48.277 0 0 0 481.897 61.115 Q 481.567 61.792 481.348 62.305 Q 480.976 63.047 480.693 63.525 A 10.053 10.053 0 0 1 480.664 63.574 Q 480.371 64.16 479.98 64.648 A 6.779 6.779 0 0 1 479.693 65.086 Q 479.478 65.388 479.199 65.723 A 20.748 20.748 0 0 0 478.474 66.646 A 23.97 23.97 0 0 0 478.223 66.992 Q 476.953 66.504 475.83 65.82 A 68.382 68.382 0 0 1 474.784 65.171 Q 474.274 64.848 473.828 64.551 A 27.344 27.344 0 0 1 472.562 63.696 A 22.342 22.342 0 0 1 471.875 63.184 A 12.432 12.432 0 0 1 470.239 61.649 A 13.602 13.602 0 0 1 470.215 61.621 A 84.321 84.321 0 0 1 469.519 60.815 A 97.552 97.552 0 0 1 468.799 59.961 Q 468.066 59.082 467.578 58.008 A 6.015 6.015 0 0 1 467.153 58.758 Q 466.409 59.9 464.795 61.621 A 19.039 19.039 0 0 1 462.178 63.921 Q 460.872 64.883 459.294 65.753 A 31.19 31.19 0 0 1 459.082 65.869 A 23.661 23.661 0 0 1 454.511 67.735 A 30.452 30.452 0 0 1 450.928 68.555 A 17.015 17.015 0 0 1 448.097 68.786 Q 446.152 68.786 444.062 68.373 A 27.328 27.328 0 0 1 440.723 67.48 Q 438.281 66.699 436.133 65.186 Q 433.984 63.672 432.471 61.523 A 13.497 13.497 0 0 1 430.542 57.446 A 15.79 15.79 0 0 1 430.322 56.592 A 12.468 12.468 0 0 1 430.023 54.18 Q 429.986 52.937 430.169 51.589 A 19.455 19.455 0 0 1 430.371 50.391 A 16.361 16.361 0 0 1 431.248 47.422 A 12.468 12.468 0 0 1 432.812 44.629 Q 434.57 42.285 437.012 40.82 A 19.898 19.898 0 0 1 441.184 38.949 A 23.226 23.226 0 0 1 442.48 38.574 A 39.159 39.159 0 0 1 448.73 37.5 A 26.423 26.423 0 0 1 449.746 37.48 A 26.68 26.68 0 0 1 453.809 37.793 A 18.455 18.455 0 0 1 456.429 38.481 A 23.479 23.479 0 0 1 458.301 39.209 Q 460.645 40.234 462.305 42.285 Q 462.207 37.109 461.963 34.033 Q 461.719 30.957 461.523 29.297 A 47.032 47.032 0 0 0 461.334 28.394 Q 461.06 27.148 460.84 26.563 A 22.509 22.509 0 0 1 460.339 25.83 A 30.548 30.548 0 0 1 459.814 25 A 7.727 7.727 0 0 0 458.496 23.389 A 5.811 5.811 0 0 0 457.431 22.605 A 7.579 7.579 0 0 0 456.543 22.168 Q 455.566 21.761 454.319 21.761 A 8.177 8.177 0 0 0 453.809 21.777 Q 452.148 21.875 451.172 22.656 A 5.886 5.886 0 0 0 450.005 23.89 A 5.344 5.344 0 0 0 449.658 24.463 A 5.709 5.709 0 0 0 449.023 26.66 A 9.378 9.378 0 0 0 448.993 27.205 Q 448.981 27.698 449.028 28.133 A 5.225 5.225 0 0 0 449.121 28.711 Q 449.303 29.256 449.653 29.884 A 9.988 9.988 0 0 0 449.707 29.98 A 6.435 6.435 0 0 0 450.073 30.473 Q 450.262 30.705 450.491 30.95 A 12.286 12.286 0 0 0 450.781 31.25 A 4.572 4.572 0 0 0 451.529 31.848 Q 451.908 32.094 452.371 32.306 A 8.317 8.317 0 0 0 452.637 32.422 A 107.584 107.584 0 0 1 450.765 32.65 Q 449.907 32.747 449.137 32.817 A 62.609 62.609 0 0 1 448.633 32.861 A 59.529 59.529 0 0 0 447.383 32.978 Q 446.768 33.042 446.227 33.114 A 30.586 30.586 0 0 0 445.605 33.203 A 82.648 82.648 0 0 1 444.562 33.336 Q 444.15 33.385 443.776 33.426 A 44.453 44.453 0 0 1 443.066 33.496 Q 442.244 33.571 441.193 33.76 A 35.11 35.11 0 0 0 440.527 33.887 A 569.507 569.507 0 0 0 439.493 34.047 Q 439.027 34.119 438.505 34.201 A 1193.082 1193.082 0 0 0 437.402 34.375 Q 435.547 34.668 433.105 35.156 A 34.397 34.397 0 0 0 433.8 34.321 A 28.831 28.831 0 0 0 434.18 33.838 Q 434.599 33.292 434.947 32.855 A 54.364 54.364 0 0 1 435.059 32.715 A 16.412 16.412 0 0 1 435.547 32.021 A 13.724 13.724 0 0 1 435.84 31.641 Z M 198.633 12.793 L 198.047 13.965 L 197.656 15.137 A 5.729 5.729 0 0 0 197.495 15.601 Q 197.421 15.843 197.357 16.12 A 10.435 10.435 0 0 0 197.314 16.309 A 16.052 16.052 0 0 0 197.15 17.201 A 19.176 19.176 0 0 0 197.07 17.773 L 212.109 17.773 L 210.742 25.684 L 196.973 24.902 A 580.324 580.324 0 0 0 196.747 27.252 Q 196.436 30.566 196.289 32.617 A 116.959 116.959 0 0 1 196.191 33.893 Q 196.045 35.669 195.898 36.621 L 195.703 38.379 A 628.27 628.27 0 0 0 195.41 42.249 A 794.941 794.941 0 0 0 195.117 46.436 A 98.128 98.128 0 0 0 194.928 50.37 Q 194.897 51.509 194.897 52.597 A 72.06 72.06 0 0 0 194.922 54.492 A 43.926 43.926 0 0 0 195.063 57.091 Q 195.167 58.303 195.339 59.346 A 20.309 20.309 0 0 0 195.605 60.693 A 6.991 6.991 0 0 0 195.88 61.602 Q 196.27 62.615 196.889 62.979 A 1.486 1.486 0 0 0 197.656 63.184 A 5.125 5.125 0 0 0 200.391 62.402 Q 201.66 61.621 202.588 60.547 A 9.587 9.587 0 0 0 203.49 59.327 A 7.681 7.681 0 0 0 204.004 58.35 A 10.319 10.319 0 0 0 204.218 57.822 Q 204.492 57.08 204.492 56.641 A 2.894 2.894 0 0 0 204.444 56.132 Q 204.4 55.885 204.315 55.612 A 6.029 6.029 0 0 0 204.199 55.273 Q 203.733 53.875 202.556 51.766 A 43.76 43.76 0 0 0 202.441 51.562 A 90.732 90.732 0 0 1 204.789 52.161 Q 206.213 52.545 207.422 52.93 Q 208.496 53.32 209.375 53.711 A 146.883 146.883 0 0 0 210.286 54.071 Q 210.752 54.254 211.27 54.454 A 251.434 251.434 0 0 0 211.621 54.59 A 51.992 51.992 0 0 0 212.195 54.846 Q 213.11 55.249 214.355 55.762 A 164.218 164.218 0 0 1 215.683 56.316 Q 216.858 56.812 218.262 57.422 Q 216.113 57.813 215.137 58.691 A 3.428 3.428 0 0 0 214.68 59.052 Q 214.423 59.296 214.258 59.57 Q 213.799 60.292 213.251 61.344 A 46.166 46.166 0 0 0 212.695 62.451 A 11.546 11.546 0 0 1 211.516 64.353 Q 210.889 65.183 210.071 66.003 A 18.366 18.366 0 0 1 210.059 66.016 Q 208.507 67.568 206.003 68.815 A 23.625 23.625 0 0 1 205.322 69.141 Q 203.162 70.132 199.948 70.507 A 33.736 33.736 0 0 1 197.363 70.703 Q 193.754 70.839 191.356 69.931 A 7.877 7.877 0 0 1 189.502 68.945 A 13.588 13.588 0 0 1 187.213 66.869 A 10.762 10.762 0 0 1 185.596 64.404 A 15.751 15.751 0 0 1 184.508 61.348 A 13.272 13.272 0 0 1 184.18 59.277 A 340.363 340.363 0 0 0 184.093 58.178 Q 183.992 56.918 183.925 56.228 A 28.779 28.779 0 0 0 183.887 55.859 A 5.32 5.32 0 0 1 183.865 55.598 Q 183.801 54.541 183.887 51.465 A 372.725 372.725 0 0 1 184.009 47.766 A 495.313 495.313 0 0 1 184.18 43.701 A 2484.744 2484.744 0 0 1 184.473 37.494 A 2231.021 2231.021 0 0 1 184.57 35.498 Q 184.766 31.543 184.766 29.688 Q 184.766 28.711 184.863 27.637 A 35.76 35.76 0 0 1 184.875 26.721 A 45.128 45.128 0 0 1 184.912 25.732 A 42.103 42.103 0 0 0 184.961 23.73 L 170.801 23.633 L 170.215 18.066 L 184.473 18.457 A 28.536 28.536 0 0 0 184.209 17.171 A 23.481 23.481 0 0 0 184.033 16.455 A 40.332 40.332 0 0 0 183.914 16.013 Q 183.765 15.47 183.635 15.069 A 13.458 13.458 0 0 0 183.594 14.941 Q 183.342 14.354 183.09 13.911 A 6.863 6.863 0 0 0 183.008 13.77 A 60.151 60.151 0 0 0 182.593 13.257 A 80.976 80.976 0 0 0 182.129 12.695 L 180.859 11.426 A 43.08 43.08 0 0 0 180.12 10.705 Q 179.736 10.339 179.3 9.939 A 76.215 76.215 0 0 0 179.004 9.668 A 2967.09 2967.09 0 0 0 181.071 9.874 Q 181.878 9.954 182.594 10.025 A 1401.759 1401.759 0 0 0 183.936 10.156 A 269.355 269.355 0 0 0 184.891 10.248 Q 186.063 10.358 186.931 10.428 A 86.11 86.11 0 0 0 187.207 10.449 Q 188.672 10.547 189.551 10.547 A 7.497 7.497 0 0 0 189.995 10.582 Q 190.702 10.618 191.691 10.56 A 26.478 26.478 0 0 0 191.895 10.547 A 359.829 359.829 0 0 1 192.578 10.495 Q 193.522 10.424 194.791 10.333 A 1143.944 1143.944 0 0 1 195.215 10.303 A 61.315 61.315 0 0 0 196.307 10.214 Q 197.931 10.069 200.082 9.804 A 177.246 177.246 0 0 0 200.391 9.766 Q 199.707 10.742 199.316 11.475 Q 198.926 12.207 198.633 12.793 Z M 89.063 23.242 L 88.77 32.129 A 31.257 31.257 0 0 1 91.325 29.42 Q 92.734 28.103 94.163 27.154 A 17.579 17.579 0 0 1 95.117 26.563 A 32.166 32.166 0 0 1 97.862 25.145 Q 99.579 24.365 101.172 23.926 A 22.348 22.348 0 0 1 106.148 22.996 A 20.247 20.247 0 0 1 107.52 22.949 A 29.967 29.967 0 0 1 112.637 23.633 A 25.902 25.902 0 0 1 114.795 24.219 A 36.249 36.249 0 0 1 117.853 25.34 A 26.393 26.393 0 0 1 120.654 26.709 Q 122.881 27.975 124.367 29.359 A 13.379 13.379 0 0 1 124.707 29.687 A 12.511 12.511 0 0 1 125.476 30.524 Q 126.201 31.395 126.47 32.125 A 2.863 2.863 0 0 1 126.562 32.422 A 18.403 18.403 0 0 1 127.169 35.021 Q 127.344 36.151 127.344 37.218 A 12.021 12.021 0 0 1 127.148 39.404 A 53.063 53.063 0 0 1 125.635 45.557 Q 124.707 48.535 124.072 51.465 A 10.566 10.566 0 0 0 123.836 53.709 Q 123.836 54.931 124.1 56.228 A 15.75 15.75 0 0 0 124.512 57.812 L 125.293 59.57 A 9.737 9.737 0 0 0 125.922 60.645 A 11.546 11.546 0 0 0 126.27 61.133 Q 126.855 61.914 127.637 62.402 A 47.602 47.602 0 0 0 125.488 62.256 A 34.952 34.952 0 0 1 124.463 62.195 A 26.076 26.076 0 0 1 123.535 62.109 A 114.527 114.527 0 0 1 122.51 62.012 A 85.067 85.067 0 0 1 121.582 61.914 Q 120.605 61.816 118.945 61.816 A 80.397 80.397 0 0 0 117.334 61.835 Q 114.69 61.888 110.371 62.099 A 502.683 502.683 0 0 0 110.156 62.109 Q 111.03 60.071 111.566 58.659 A 46.995 46.995 0 0 0 111.572 58.643 A 74.439 74.439 0 0 1 111.832 57.968 Q 112.154 57.142 112.416 56.539 A 23.997 23.997 0 0 1 112.5 56.348 Q 112.799 55.525 112.984 54.989 A 32.782 32.782 0 0 0 113.086 54.688 A 18.406 18.406 0 0 0 114.15 51.049 A 23.835 23.835 0 0 0 114.502 48.242 A 25.598 25.598 0 0 0 114.56 46.516 A 27.116 27.116 0 0 0 113.965 40.918 Q 113.672 39.648 112.988 37.891 Q 112.305 36.133 111.182 34.473 Q 110.059 32.813 108.545 31.641 A 6.625 6.625 0 0 0 105.078 30.273 A 5.695 5.695 0 0 0 104.511 30.246 Q 103.013 30.246 101.271 31.001 A 12.874 12.874 0 0 0 100.732 31.25 A 11.342 11.342 0 0 0 98.929 32.374 Q 98.083 33.009 97.198 33.865 A 27.838 27.838 0 0 0 95.605 35.547 A 17.89 17.89 0 0 0 93.492 39.065 A 23.555 23.555 0 0 0 92.383 41.992 A 24.701 24.701 0 0 0 91.673 44.636 Q 91.162 47.028 90.918 50.049 Q 90.527 54.883 92.09 61.328 A 28.445 28.445 0 0 0 90.614 61.155 A 22.247 22.247 0 0 0 89.551 61.084 Q 88.379 61.035 87.598 60.938 A 85.276 85.276 0 0 1 86.684 60.841 Q 86.251 60.793 85.865 60.745 A 51.459 51.459 0 0 1 85.84 60.742 A 18.615 18.615 0 0 1 84.912 60.718 A 25.302 25.302 0 0 1 83.887 60.645 Q 82.91 60.645 81.445 60.596 Q 80.438 60.562 79.2 60.505 A 278.128 278.128 0 0 1 78.027 60.449 A 101.259 101.259 0 0 0 78.56 57.77 Q 78.785 56.545 78.95 55.451 A 56.362 56.362 0 0 0 79.053 54.736 A 344.472 344.472 0 0 0 79.214 53.543 Q 79.436 51.886 79.58 50.667 A 117.383 117.383 0 0 0 79.59 50.586 Q 79.738 49.1 79.774 47.953 A 22.235 22.235 0 0 0 79.785 47.266 A 78.947 78.947 0 0 1 79.719 45.931 Q 79.694 45.338 79.674 44.683 A 148.079 148.079 0 0 1 79.639 43.311 A 108.166 108.166 0 0 0 79.443 38.721 A 113.758 113.758 0 0 0 79.295 36.677 Q 79.217 35.716 79.127 34.861 A 67.064 67.064 0 0 0 79.102 34.619 A 25.65 25.65 0 0 0 78.998 33.78 Q 78.833 32.617 78.613 32.031 A 8.326 8.326 0 0 0 78.183 31.277 Q 77.939 30.896 77.634 30.495 A 14.128 14.128 0 0 0 77.539 30.371 Q 76.172 28.711 73.535 27.148 Q 75.079 26.813 76.324 26.546 A 560.444 560.444 0 0 1 77.393 26.318 A 75.2 75.2 0 0 0 78.165 26.151 Q 79.272 25.903 80.078 25.684 L 82.129 25 A 16.195 16.195 0 0 1 82.756 24.78 Q 83.139 24.654 83.576 24.529 A 29.83 29.83 0 0 1 83.984 24.414 A 194.588 194.588 0 0 0 84.698 24.254 Q 85.339 24.109 86.133 23.926 A 563.818 563.818 0 0 0 87.318 23.651 Q 87.926 23.509 88.603 23.35 A 988.508 988.508 0 0 0 89.062 23.242 Z M 304.59 46.875 L 301.953 47.168 A 35.184 35.184 0 0 1 300.838 47.308 Q 300.337 47.363 299.773 47.413 A 72.902 72.902 0 0 1 298.584 47.51 Q 297.208 47.61 295.439 47.78 A 233.233 233.233 0 0 0 293.75 47.949 A 38.074 38.074 0 0 0 295.803 46.171 Q 297.713 44.385 298.659 42.876 A 8.109 8.109 0 0 0 299.072 42.139 Q 300.125 39.992 300.125 38.462 A 4.054 4.054 0 0 0 300.098 37.988 A 4.718 4.718 0 0 0 298.795 35.205 A 6.297 6.297 0 0 0 298.34 34.766 Q 296.484 33.691 294.336 33.984 Q 292.997 34.125 291.353 34.927 A 17.336 17.336 0 0 0 290.039 35.645 A 10.605 10.605 0 0 0 288.366 36.915 Q 286.679 38.454 284.863 41.113 Q 285.059 47.363 285.303 51.465 A 661.112 661.112 0 0 0 285.422 53.418 Q 285.571 55.81 285.7 57.553 A 200.513 200.513 0 0 0 285.742 58.105 A 503.053 503.053 0 0 0 285.883 59.491 Q 286.021 60.838 286.134 61.847 A 140.403 140.403 0 0 0 286.23 62.695 A 9.784 9.784 0 0 0 286.67 64.209 Q 286.963 64.99 287.402 65.82 A 14.593 14.593 0 0 0 288.054 66.98 Q 288.431 67.586 288.905 68.242 A 28.07 28.07 0 0 0 289.355 68.848 Q 290.625 70.508 292.676 72.168 A 101.082 101.082 0 0 0 290.686 72.096 Q 287.717 72.02 285.645 72.168 Q 284.218 72.252 283.08 72.336 A 115.35 115.35 0 0 0 282.715 72.363 A 153.084 153.084 0 0 1 281.299 72.559 A 186.344 186.344 0 0 1 279.785 72.754 A 338.013 338.013 0 0 1 278.505 72.934 Q 277.847 73.026 277.111 73.126 A 603.352 603.352 0 0 1 276.611 73.193 A 2917.38 2917.38 0 0 0 274.719 73.45 A 3785.243 3785.243 0 0 0 272.656 73.73 A 8.907 8.907 0 0 0 273.592 72.092 A 10.781 10.781 0 0 0 273.926 71.24 A 28.929 28.929 0 0 0 274.448 69.569 A 23.452 23.452 0 0 0 274.707 68.555 A 22.629 22.629 0 0 0 275.293 65.527 A 36.419 36.419 0 0 0 275.339 64.758 Q 275.403 63.477 275.439 61.426 A 78.722 78.722 0 0 0 275.452 60.104 Q 275.454 57.879 275.342 55.225 A 726.325 726.325 0 0 0 275.095 49.86 A 820.066 820.066 0 0 0 275 47.998 A 211.021 211.021 0 0 0 274.718 43.47 A 175.626 175.626 0 0 0 274.512 40.918 Q 274.31 38.635 274.086 36.745 A 90.861 90.861 0 0 0 273.877 35.107 A 39.389 39.389 0 0 0 273.703 33.957 Q 273.439 32.382 273.148 31.649 A 3.696 3.696 0 0 0 273.145 31.641 A 19.423 19.423 0 0 0 272.141 29.59 A 21.528 21.528 0 0 0 271.973 29.297 A 18.824 18.824 0 0 0 271.313 28.186 A 25.658 25.658 0 0 0 270.508 27.002 Q 269.629 25.781 268.555 24.414 A 48.911 48.911 0 0 0 269.754 24.463 Q 270.842 24.493 271.797 24.467 A 29.535 29.535 0 0 0 271.924 24.463 Q 273.438 24.414 274.512 24.316 Q 275.603 24.232 276.477 24.149 A 70.303 70.303 0 0 0 276.758 24.121 A 56.566 56.566 0 0 0 279.01 23.773 A 63.087 63.087 0 0 0 279.785 23.633 A 34.306 34.306 0 0 0 281.551 23.331 A 40.839 40.839 0 0 0 282.666 23.096 A 31.017 31.017 0 0 0 285.645 22.266 A 116.956 116.956 0 0 0 285.233 23.309 Q 285.072 23.721 284.931 24.095 A 62.001 62.001 0 0 0 284.668 24.805 A 26.324 26.324 0 0 0 284.402 25.569 Q 284.204 26.172 284.082 26.66 A 7.641 7.641 0 0 0 283.928 27.181 Q 283.789 27.722 283.789 28.125 A 8.586 8.586 0 0 0 283.73 28.679 Q 283.706 28.989 283.697 29.343 A 17.542 17.542 0 0 0 283.691 29.785 A 21.856 21.856 0 0 0 283.67 30.232 Q 283.606 31.904 283.691 35.134 A 211.221 211.221 0 0 0 283.691 35.156 A 178.281 178.281 0 0 1 286.708 32.6 Q 288.277 31.302 289.657 30.234 A 71.295 71.295 0 0 1 292.236 28.32 A 485.577 485.577 0 0 1 293.881 27.167 Q 295.486 26.046 296.715 25.212 A 142.783 142.783 0 0 1 297.754 24.512 A 42.273 42.273 0 0 1 298.907 23.798 Q 300.537 22.827 301.563 22.461 Q 302.31 22.34 303.02 22.34 A 7.502 7.502 0 0 1 307.91 24.121 Q 309.008 25.036 310.019 26.507 A 16.909 16.909 0 0 1 310.156 26.709 A 11.491 11.491 0 0 1 310.98 28.185 Q 311.335 28.938 311.649 29.833 A 23.662 23.662 0 0 1 312.012 30.957 Q 312.793 33.594 313.184 37.256 A 38.071 38.071 0 0 1 313.351 39.464 Q 313.449 41.497 313.375 43.885 A 78.451 78.451 0 0 1 313.281 45.996 A 174.676 174.676 0 0 0 311.455 46.179 Q 310.598 46.27 309.835 46.361 A 102.347 102.347 0 0 0 309.619 46.387 A 143.296 143.296 0 0 1 308.847 46.478 Q 307.739 46.606 306.934 46.68 A 17.566 17.566 0 0 1 305.64 46.832 A 13.425 13.425 0 0 1 304.59 46.875 Z M 415.723 46.875 L 413.086 47.168 A 35.184 35.184 0 0 1 411.971 47.308 Q 411.47 47.363 410.906 47.413 A 72.902 72.902 0 0 1 409.717 47.51 Q 408.34 47.61 406.572 47.78 A 233.233 233.233 0 0 0 404.883 47.949 A 38.074 38.074 0 0 0 406.936 46.171 Q 408.846 44.385 409.792 42.876 A 8.109 8.109 0 0 0 410.205 42.139 Q 411.257 39.992 411.257 38.462 A 4.054 4.054 0 0 0 411.23 37.988 A 4.718 4.718 0 0 0 409.928 35.205 A 6.297 6.297 0 0 0 409.473 34.766 Q 407.617 33.691 405.469 33.984 Q 404.13 34.125 402.485 34.927 A 17.336 17.336 0 0 0 401.172 35.645 A 10.605 10.605 0 0 0 399.498 36.915 Q 397.812 38.454 395.996 41.113 Q 396.191 47.363 396.436 51.465 A 661.112 661.112 0 0 0 396.555 53.418 Q 396.704 55.81 396.833 57.553 A 200.513 200.513 0 0 0 396.875 58.105 A 503.053 503.053 0 0 0 397.015 59.491 Q 397.154 60.838 397.266 61.847 A 140.403 140.403 0 0 0 397.363 62.695 A 9.784 9.784 0 0 0 397.803 64.209 Q 398.096 64.99 398.535 65.82 A 14.593 14.593 0 0 0 399.187 66.98 Q 399.563 67.586 400.037 68.242 A 28.07 28.07 0 0 0 400.488 68.848 Q 401.758 70.508 403.809 72.168 A 101.082 101.082 0 0 0 401.819 72.096 Q 398.849 72.02 396.777 72.168 Q 395.351 72.252 394.212 72.336 A 115.35 115.35 0 0 0 393.848 72.363 A 153.084 153.084 0 0 1 392.432 72.559 A 186.344 186.344 0 0 1 390.918 72.754 A 338.013 338.013 0 0 1 389.638 72.934 Q 388.98 73.026 388.244 73.126 A 603.352 603.352 0 0 1 387.744 73.193 A 2917.38 2917.38 0 0 0 385.852 73.45 A 3785.243 3785.243 0 0 0 383.789 73.73 A 8.907 8.907 0 0 0 384.725 72.092 A 10.781 10.781 0 0 0 385.059 71.24 A 28.929 28.929 0 0 0 385.581 69.569 A 23.452 23.452 0 0 0 385.84 68.555 A 22.629 22.629 0 0 0 386.426 65.527 A 36.419 36.419 0 0 0 386.472 64.758 Q 386.536 63.477 386.572 61.426 A 78.722 78.722 0 0 0 386.584 60.104 Q 386.587 57.879 386.475 55.225 A 726.325 726.325 0 0 0 386.227 49.86 A 820.066 820.066 0 0 0 386.133 47.998 A 211.021 211.021 0 0 0 385.851 43.47 A 175.626 175.626 0 0 0 385.645 40.918 Q 385.443 38.635 385.219 36.745 A 90.861 90.861 0 0 0 385.01 35.107 A 39.389 39.389 0 0 0 384.836 33.957 Q 384.572 32.382 384.281 31.649 A 3.696 3.696 0 0 0 384.277 31.641 A 19.423 19.423 0 0 0 383.273 29.59 A 21.528 21.528 0 0 0 383.105 29.297 A 18.824 18.824 0 0 0 382.446 28.186 A 25.658 25.658 0 0 0 381.641 27.002 Q 380.762 25.781 379.688 24.414 A 48.911 48.911 0 0 0 380.887 24.463 Q 381.975 24.493 382.93 24.467 A 29.535 29.535 0 0 0 383.057 24.463 Q 384.57 24.414 385.645 24.316 Q 386.736 24.232 387.61 24.149 A 70.303 70.303 0 0 0 387.891 24.121 A 56.566 56.566 0 0 0 390.143 23.773 A 63.087 63.087 0 0 0 390.918 23.633 A 34.306 34.306 0 0 0 392.684 23.331 A 40.839 40.839 0 0 0 393.799 23.096 A 31.017 31.017 0 0 0 396.777 22.266 A 116.956 116.956 0 0 0 396.365 23.309 Q 396.205 23.721 396.064 24.095 A 62.001 62.001 0 0 0 395.801 24.805 A 26.324 26.324 0 0 0 395.535 25.569 Q 395.337 26.172 395.215 26.66 A 7.641 7.641 0 0 0 395.06 27.181 Q 394.922 27.722 394.922 28.125 A 8.586 8.586 0 0 0 394.862 28.679 Q 394.839 28.989 394.83 29.343 A 17.542 17.542 0 0 0 394.824 29.785 A 21.856 21.856 0 0 0 394.803 30.232 Q 394.739 31.904 394.824 35.134 A 211.221 211.221 0 0 0 394.824 35.156 A 178.281 178.281 0 0 1 397.841 32.6 Q 399.41 31.302 400.79 30.234 A 71.295 71.295 0 0 1 403.369 28.32 A 485.577 485.577 0 0 1 405.014 27.167 Q 406.619 26.046 407.848 25.212 A 142.783 142.783 0 0 1 408.887 24.512 A 42.273 42.273 0 0 1 410.04 23.798 Q 411.67 22.827 412.695 22.461 Q 413.443 22.34 414.153 22.34 A 7.502 7.502 0 0 1 419.043 24.121 Q 420.14 25.036 421.152 26.507 A 16.909 16.909 0 0 1 421.289 26.709 A 11.491 11.491 0 0 1 422.113 28.185 Q 422.467 28.938 422.782 29.833 A 23.662 23.662 0 0 1 423.145 30.957 Q 423.926 33.594 424.316 37.256 A 38.071 38.071 0 0 1 424.484 39.464 Q 424.581 41.497 424.508 43.885 A 78.451 78.451 0 0 1 424.414 45.996 A 174.676 174.676 0 0 0 422.588 46.179 Q 421.73 46.27 420.968 46.361 A 102.347 102.347 0 0 0 420.752 46.387 A 143.296 143.296 0 0 1 419.98 46.478 Q 418.872 46.606 418.066 46.68 A 17.566 17.566 0 0 1 416.773 46.832 A 13.425 13.425 0 0 1 415.723 46.875 Z M 246.582 44.531 L 242.188 44.531 L 238.867 44.531 A 78.824 78.824 0 0 0 237.921 44.537 Q 236.615 44.553 234.863 44.609 A 249.424 249.424 0 0 0 234.277 44.629 A 379.522 379.522 0 0 0 231.975 44.716 Q 230.941 44.758 229.783 44.809 A 781.392 781.392 0 0 0 227.344 44.922 A 14.593 14.593 0 0 0 227.858 47.394 Q 228.272 48.741 228.94 49.785 A 7.554 7.554 0 0 0 229.834 50.928 A 16.392 16.392 0 0 0 232.03 52.869 A 13.002 13.002 0 0 0 234.082 54.102 A 15.235 15.235 0 0 0 238.714 55.384 A 17.724 17.724 0 0 0 239.648 55.469 A 22.438 22.438 0 0 0 242.914 55.24 A 18.671 18.671 0 0 0 244.727 54.883 A 13.088 13.088 0 0 0 248.373 53.341 A 14.61 14.61 0 0 0 248.486 53.271 A 5.28 5.28 0 0 0 250.736 50.38 A 6.975 6.975 0 0 0 250.879 49.902 Q 252.832 50.293 254.199 50.537 Q 255.139 50.705 255.894 50.85 A 82.546 82.546 0 0 1 256.543 50.977 Q 257.617 51.27 258.398 51.367 Q 258.936 51.501 259.611 51.636 A 40.078 40.078 0 0 0 260.254 51.758 A 65.677 65.677 0 0 0 261.048 51.911 Q 261.405 51.978 261.804 52.049 A 134.127 134.127 0 0 0 262.646 52.197 A 95.795 95.795 0 0 1 263.784 52.401 Q 264.289 52.494 264.847 52.602 A 181.142 181.142 0 0 1 266.016 52.832 A 6.357 6.357 0 0 0 265.175 52.776 Q 264.118 52.776 263.037 53.125 A 33.554 33.554 0 0 0 260.5 54.054 A 30.374 30.374 0 0 0 260.156 54.199 A 16.188 16.188 0 0 0 257.227 55.859 A 8.232 8.232 0 0 0 256.563 56.356 Q 256.254 56.611 255.919 56.927 A 19.197 19.197 0 0 0 255.225 57.617 A 8.886 8.886 0 0 1 254.162 58.551 Q 253.605 58.972 252.919 59.379 A 18.509 18.509 0 0 1 252.051 59.863 A 14.933 14.933 0 0 1 250.327 60.621 Q 249.433 60.953 248.375 61.244 A 33.402 33.402 0 0 1 246.631 61.67 Q 243.439 62.364 238.538 62.225 A 63.149 63.149 0 0 1 237.988 62.207 A 34.155 34.155 0 0 1 233.342 61.764 Q 230.913 61.353 228.877 60.576 A 18.548 18.548 0 0 1 227.344 59.912 A 24.312 24.312 0 0 1 223.462 57.568 A 18.841 18.841 0 0 1 220.41 54.736 A 19.798 19.798 0 0 1 217.115 49.438 A 18.477 18.477 0 0 1 216.602 48.047 A 28.387 28.387 0 0 1 215.703 44.582 A 21.13 21.13 0 0 1 215.332 41.309 A 9.549 9.549 0 0 1 215.327 41.01 Q 215.327 38.021 217.188 34.766 A 20.35 20.35 0 0 1 220.445 30.532 A 25.725 25.725 0 0 1 222.705 28.516 A 26.937 26.937 0 0 1 227.471 25.514 A 34.995 34.995 0 0 1 231.348 23.877 A 31.391 31.391 0 0 1 239.152 22.213 A 38.002 38.002 0 0 1 242.48 22.07 A 26.145 26.145 0 0 1 246.466 22.363 A 21.594 21.594 0 0 1 248.975 22.9 A 26.427 26.427 0 0 1 253.168 24.448 A 23.423 23.423 0 0 1 254.443 25.098 A 23.563 23.563 0 0 1 257.308 26.94 A 19.757 19.757 0 0 1 258.789 28.174 A 25.763 25.763 0 0 1 260.691 30.112 A 20.521 20.521 0 0 1 261.914 31.641 Q 263.184 33.496 264.063 35.547 A 18.383 18.383 0 0 1 264.846 37.671 A 24.051 24.051 0 0 1 265.332 39.551 A 15.295 15.295 0 0 1 265.681 42.809 A 16.025 16.025 0 0 1 265.625 44.141 A 4345.615 4345.615 0 0 1 262.094 44.232 Q 257.775 44.342 254.652 44.412 A 1275.264 1275.264 0 0 1 253.662 44.434 Q 250.185 44.508 247.882 44.526 A 171.813 171.813 0 0 1 246.582 44.531 Z M 51.074 27.539 L 69.043 27.734 Q 67.48 33.691 66.748 37.891 A 102.3 102.3 0 0 0 66.291 40.732 Q 65.945 43.108 65.82 44.922 A 39.345 39.345 0 0 0 65.642 46.719 Q 65.514 48.432 65.585 49.814 A 16.415 16.415 0 0 0 65.625 50.391 A 28.605 28.605 0 0 0 66.078 52.79 A 36.602 36.602 0 0 0 66.602 54.785 A 26.156 26.156 0 0 0 67.174 56.469 Q 67.664 57.77 68.359 59.277 A 24.797 24.797 0 0 0 70.129 62.451 A 30.516 30.516 0 0 0 71.484 64.355 A 13.771 13.771 0 0 0 69.781 63.911 A 16.328 16.328 0 0 0 68.945 63.77 A 49.255 49.255 0 0 0 67.627 63.599 A 38.706 38.706 0 0 0 66.406 63.477 A 19.183 19.183 0 0 0 65.039 63.428 A 19.183 19.183 0 0 0 63.672 63.477 A 57.557 57.557 0 0 0 62.231 63.599 A 77.478 77.478 0 0 0 60.645 63.77 Q 59.277 63.965 57.324 64.258 A 53.293 53.293 0 0 0 54.546 64.753 A 62.748 62.748 0 0 0 53.223 65.039 Q 54.344 61.674 55.094 58.997 A 78.501 78.501 0 0 0 55.518 57.422 A 123.041 123.041 0 0 0 55.905 55.878 Q 56.445 53.662 56.738 52.051 Q 57.111 49.628 57.217 48.094 A 22.1 22.1 0 0 0 57.227 47.949 L 57.227 43.506 L 57.227 38.672 Q 57.227 36.658 57.154 35.04 A 55.02 55.02 0 0 0 57.129 34.521 Q 57.043 32.927 56.804 32.36 A 1.047 1.047 0 0 0 56.738 32.227 L 55.762 31.25 A 256.373 256.373 0 0 0 55.435 30.978 Q 54.895 30.53 54.053 29.834 Q 52.93 28.906 51.074 27.539 Z M 332.422 39.551 A 16.874 16.874 0 0 0 332.222 41.949 Q 332.197 44.427 332.959 46.68 A 18.188 18.188 0 0 0 334.725 50.468 A 15.618 15.618 0 0 0 336.133 52.393 A 16.218 16.218 0 0 0 339.016 55.057 A 14.173 14.173 0 0 0 340.723 56.104 Q 343.087 57.331 345.197 57.331 A 7.164 7.164 0 0 0 345.508 57.324 A 10.008 10.008 0 0 0 352.258 54.517 A 14.43 14.43 0 0 0 353.613 53.076 Q 357.031 48.926 357.715 40.625 A 20.521 20.521 0 0 0 357.768 39.259 Q 357.783 36.016 356.689 33.545 Q 355.371 30.566 353.418 28.711 A 13.573 13.573 0 0 0 351.416 27.124 A 10.545 10.545 0 0 0 349.316 26.074 A 16.177 16.177 0 0 0 348.217 25.716 Q 346.824 25.319 345.898 25.391 Q 344.254 25.573 342.31 26.312 A 21.431 21.431 0 0 0 342.041 26.416 A 14.383 14.383 0 0 0 339.099 28.013 A 17.318 17.318 0 0 0 337.988 28.857 A 13.623 13.623 0 0 0 335.877 31.063 A 18.098 18.098 0 0 0 334.521 33.105 A 15.527 15.527 0 0 0 333.24 36.035 Q 332.78 37.445 332.499 39.079 A 26.455 26.455 0 0 0 332.422 39.551 Z M 241.895 38.477 L 244.336 38.477 A 70.107 70.107 0 0 0 245.711 38.46 Q 247.719 38.42 251.17 38.279 A 688.46 688.46 0 0 0 253.418 38.184 A 22.008 22.008 0 0 0 253.118 35.713 Q 252.901 34.53 252.556 33.561 A 8.554 8.554 0 0 0 251.611 31.641 Q 250.098 29.395 248.438 28.32 A 9.821 9.821 0 0 0 244.141 26.953 A 26.016 26.016 0 0 0 240.829 27.201 Q 236.996 27.755 234.795 29.526 A 8.065 8.065 0 0 0 234.717 29.59 A 9.218 9.218 0 0 0 232.353 32.647 Q 231.277 34.807 230.859 37.891 A 515.74 515.74 0 0 0 232.358 37.982 Q 234.44 38.106 235.982 38.179 A 179.203 179.203 0 0 0 236.084 38.184 A 227.097 227.097 0 0 1 237.088 38.232 Q 238.43 38.301 239.413 38.369 A 74.906 74.906 0 0 1 239.551 38.379 Q 241.016 38.477 241.895 38.477 Z M 450.488 43.262 A 10.446 10.446 0 0 0 447.467 43.898 A 12.056 12.056 0 0 0 446.973 44.092 Q 445.215 44.824 443.848 46.143 A 12.383 12.383 0 0 0 441.553 49.17 A 7.739 7.739 0 0 0 440.625 52.866 A 9.035 9.035 0 0 0 440.625 52.93 A 6.905 6.905 0 0 0 440.881 54.846 A 5.756 5.756 0 0 0 441.65 56.494 A 7.967 7.967 0 0 0 444.019 58.764 A 9.368 9.368 0 0 0 444.385 58.984 Q 446.094 59.961 448.096 60.156 A 10.272 10.272 0 0 0 449.094 60.205 A 10.241 10.241 0 0 0 452.051 59.766 A 10.1 10.1 0 0 0 454.51 58.433 A 12.471 12.471 0 0 0 455.566 57.568 A 17.023 17.023 0 0 0 458.398 54.248 A 14.073 14.073 0 0 0 459.501 52.216 A 11.403 11.403 0 0 0 460.059 50.635 Q 460.547 48.828 460.156 47.656 A 5.26 5.26 0 0 0 457.294 44.372 A 7.48 7.48 0 0 0 456.641 44.092 A 13.566 13.566 0 0 0 453.172 43.306 Q 451.888 43.182 450.488 43.262 Z M 59.646 11.893 A 6.542 6.542 0 0 0 58.008 12.5 A 10.497 10.497 0 0 0 57.257 12.958 Q 56.482 13.478 55.935 14.068 A 4.833 4.833 0 0 0 54.785 16.064 A 6.817 6.817 0 0 0 54.638 16.707 Q 54.551 17.199 54.551 17.658 A 4.146 4.146 0 0 0 55.078 19.727 A 3.893 3.893 0 0 0 56.778 21.315 A 5.849 5.849 0 0 0 58.105 21.777 Q 60.254 22.266 63.086 20.605 Q 64.856 19.507 65.653 18.37 A 3.51 3.51 0 0 0 66.26 16.992 Q 66.337 16.573 66.337 16.179 A 3.6 3.6 0 0 0 65.43 13.77 A 5.302 5.302 0 0 0 63.751 12.476 A 7.199 7.199 0 0 0 62.158 11.914 A 5.756 5.756 0 0 0 60.851 11.761 Q 60.246 11.761 59.646 11.893 Z"/></g></svg>